<?xml version="1.0" encoding="UTF-8" standalone="no"?>
<!-- Created with Inkscape (http://www.inkscape.org/) -->

<svg
   xmlns:dc="http://purl.org/dc/elements/1.1/"
   xmlns:cc="http://creativecommons.org/ns#"
   xmlns:rdf="http://www.w3.org/1999/02/22-rdf-syntax-ns#"
   xmlns:svg="http://www.w3.org/2000/svg"
   xmlns="http://www.w3.org/2000/svg"
   xmlns:sodipodi="http://sodipodi.sourceforge.net/DTD/sodipodi-0.dtd"
   xmlns:inkscape="http://www.inkscape.org/namespaces/inkscape"
   width="10.304259pc"
   height="24.873394pc"
   viewBox="0 0 43.621363 105.29737"
   version="1.1"
   id="svg8"
   inkscape:version="0.92.4 (5da689c313, 2019-01-14)"
   sodipodi:docname="C1.svg">
  <defs
     id="defs2" />
  <sodipodi:namedview
     id="base"
     pagecolor="#ffffff"
     bordercolor="#666666"
     borderopacity="1.0"
     inkscape:pageopacity="0.0"
     inkscape:pageshadow="2"
     inkscape:zoom="0.70710678"
     inkscape:cx="83.441026"
     inkscape:cy="324.02997"
     inkscape:document-units="mm"
     inkscape:current-layer="layer1"
     showgrid="false"
     inkscape:pagecheckerboard="false"
     showborder="true"
     units="pc"
     showguides="false"
     inkscape:showpageshadow="false"
     inkscape:window-width="1920"
     inkscape:window-height="1027"
     inkscape:window-x="-8"
     inkscape:window-y="-8"
     inkscape:window-maximized="1">
    <inkscape:grid
       type="xygrid"
       id="grid10"
       originx="-27.206546"
       originy="-105.62834" />
  </sodipodi:namedview>
  <metadata
     id="metadata5">
    <rdf:RDF>
      <cc:Work
         rdf:about="">
        <dc:format>image/svg+xml</dc:format>
        <dc:type
           rdf:resource="http://purl.org/dc/dcmitype/StillImage" />
        <dc:title></dc:title>
      </cc:Work>
    </rdf:RDF>
  </metadata>
  <g
     inkscape:label="Layer 1"
     inkscape:groupmode="layer"
     id="layer1"
     transform="translate(-27.206547,-86.074292)">
    <path
       inkscape:connector-curvature="0"
       style="fill:#000000;stroke-width:0.26458332"
       d="m 34.359825,164.99695 c 0.05027,0.53208 13.9319,17.41885 20.510765,26.01304 0.378883,0.49504 1.12686,0.47916 1.484841,-0.0309 2.436284,-3.47266 10.357115,-14.76058 13.399029,-19.07646 0.504032,-0.0172 1.102519,-11.54219 1.072357,-11.62103 -0.16219,-17.44985 -0.554302,-52.66801 -0.650346,-52.77067 -0.02434,-0.0839 -11.117527,-13.984815 -16.612129,-20.854192 -0.05424,-0.125413 -0.142346,-0.233627 -0.250296,-0.312738 -0.0079,-0.01005 -0.01587,-0.02011 -0.02408,-0.0299 -0.121179,-0.151607 -0.262996,-0.21643 -0.40349,-0.223573 -0.186796,-0.04048 -0.392377,-0.0093 -0.576262,0.139435 -8.202877,6.637338 -16.901055,13.701977 -25.103667,20.339578 5.29e-4,-2.6e-4 5.342467,39.29433 7.153275,58.42741 z m 8.294687,2.09047 c -1.346729,-13.12518 -2.693193,-26.25037 -4.039922,-39.37529 -0.0085,-0.0823 -0.03149,-0.15398 -0.06138,-0.22013 0.812536,-2.92153 1.624806,-5.84306 2.437077,-8.76459 6.197865,0.14896 12.395994,0.29792 18.593859,0.44688 0.53975,6.96331 1.079764,13.92688 1.619514,20.89018 -0.03969,0.0437 -0.07699,0.0926 -0.10795,0.15425 -1.474523,2.93688 -2.94931,5.87375 -4.423833,8.81063 -0.0717,0.14287 -0.08943,0.28231 -0.06853,0.40957 -0.08308,0.13309 -0.10795,0.30533 -0.03466,0.50562 1.709473,4.67069 3.419211,9.34165 5.128948,14.01233 -3.532187,-0.97525 -7.064375,-1.95024 -10.596562,-2.92549 -0.03704,-0.0103 -0.07197,-0.014 -0.107156,-0.0185 -0.216959,-0.0881 -0.47625,-0.0828 -0.703528,0.0947 -2.545027,1.99337 -5.090318,3.98647 -7.635875,5.97984 z m 8.199173,-4.75218 c 3.376877,0.9324 6.75349,1.86452 10.130367,2.79665 -2.416704,0.99748 -4.833408,1.99522 -7.250112,2.9927 -0.01006,-0.001 -0.01879,-0.004 -0.02937,-0.005 -3.175,-0.18627 -6.35,-0.3728 -9.525,-0.55906 2.224881,-1.74149 4.449498,-3.48351 6.674114,-5.22552 z m 14.570869,-12.87012 c -0.988219,4.24524 -1.976437,8.49021 -2.964656,12.73545 -1.535113,-4.19391 -3.070225,-8.38808 -4.605338,-12.582 1.309688,-2.60852 2.61964,-5.21705 3.929327,-7.82558 l 3.670565,7.58481 c -0.01058,0.0283 -0.02249,0.0553 -0.0299,0.0873 z M 53.830512,89.094609 c 4.935538,6.170348 9.870811,12.340691 14.806348,18.511311 -2.703777,3.19458 -5.407818,6.38915 -8.111595,9.58347 -2.231496,-9.36493 -4.462992,-18.729854 -6.694753,-28.094781 z M 41.449865,117.41561 c 1.589616,-4.61804 3.179497,-9.23581 4.769379,-13.85385 2.111639,-4.706672 4.223543,-9.41308 6.335183,-14.119753 2.256102,9.467585 4.512204,18.935433 6.768306,28.403023 -5.957887,-0.14288 -11.915246,-0.28602 -17.872868,-0.42942 z m 27.408981,52.02608 -4.757738,-4.64159 c 1.78144,-0.99642 3.562879,-1.99258 5.344584,-2.98873 -0.195527,2.54344 -0.391055,5.08688 -0.586846,7.63032 z M 57.06425,187.61856 c 2.032,-7.29615 4.064,-14.59203 6.096,-21.88818 1.843352,1.79837 3.68644,3.59648 5.529792,5.39485 -3.875352,5.49778 -7.750705,10.99556 -11.625792,16.49333 z m 5.486135,-47.26913 c -0.551127,-7.11015 -1.102518,-14.2203 -1.653645,-21.33045 0.01138,-0.0553 0.01429,-0.11483 0.0098,-0.177 0.01508,-0.036 0.03122,-0.0714 0.04048,-0.11007 2.693988,-3.18267 5.387711,-6.36535 8.081698,-9.54828 0.158221,17.02673 0.316442,34.05319 0.474663,51.07993 -2.006336,1.12183 -4.012406,2.24393 -6.018742,3.36576 1.07315,-4.60983 2.1463,-9.21967 3.21945,-13.82924 0.02037,-0.0871 0.02117,-0.16722 0.01191,-0.24236 0.08678,-0.17145 0.106627,-0.37994 0.0016,-0.5969 -1.388798,-2.87046 -2.777861,-5.74093 -4.167188,-8.61139 z m -18.431933,28.93245 c 0.129117,-0.0982 0.224367,-0.23654 0.269081,-0.38656 2.855648,0.16748 8.937361,0.81942 9.240044,0.69453 2.668058,-1.10146 5.336381,-2.20292 8.00444,-3.30411 -2.103702,7.55332 -4.20714,15.10665 -6.310842,22.66024 -3.734065,-6.55453 -7.468394,-13.10931 -11.202723,-19.6641 z m -6.280944,-2.64716 c 1.499129,0.72972 2.998259,1.45944 4.497652,2.18917 2.919413,5.12445 5.838825,10.2489 8.758238,15.37308 -4.418542,-5.85417 -8.837083,-11.70808 -13.25589,-17.56225 z m -8.736277,-56.76185 c 1.423194,1.84441 2.846123,3.68882 4.269317,5.53323 1.284287,4.28995 2.568839,8.58017 3.853127,12.87012 0.03307,0.11087 0.08652,0.19844 0.151606,0.26776 l 3.93065,38.31088 -5.237692,-2.54953 c -0.129116,-0.13308 -0.286808,-0.19738 -0.446616,-0.2077 -0.0085,-0.003 -0.01693,-0.003 -0.0254,-0.006 -1.729846,-18.12235 -3.899694,-36.20001 -6.494992,-54.21866 z m 6.316133,4.72863 c 2.883959,-2.94905 5.767917,-5.89809 8.651611,-8.84714 -1.279525,3.71687 -2.55905,7.43374 -3.838575,11.1506 -1.604169,-0.76782 -3.208602,-1.53564 -4.813036,-2.30346 z m 4.360598,3.54939 c -0.674952,2.42702 -1.349904,4.85431 -2.024856,7.28133 -0.961231,-3.21019 -1.922198,-6.42038 -2.883429,-9.63057 1.636183,0.78317 3.272102,1.56633 4.908285,2.34924 z M 28.692979,107.03336 c 7.602008,-6.1513 15.204017,-12.302597 22.806025,-18.453895 -2.124075,4.733925 -4.24815,9.468115 -6.372225,14.202035 -0.0013,0.001 -0.0026,0.002 -0.0037,0.003 -3.695435,3.77905 -7.391135,7.55783 -11.086571,11.33687 -1.77165,-2.29605 -3.5433,-4.59211 -5.31495,-6.88816 -0.0098,-0.0669 -0.01905,-0.13362 -0.02858,-0.20003 z"
       id="path6" />
  </g>
</svg>
