<?xml version="1.0" encoding="UTF-8" standalone="no"?>
<!-- Created with Inkscape (http://www.inkscape.org/) -->

<svg
   xmlns:dc="http://purl.org/dc/elements/1.1/"
   xmlns:cc="http://creativecommons.org/ns#"
   xmlns:rdf="http://www.w3.org/1999/02/22-rdf-syntax-ns#"
   xmlns:svg="http://www.w3.org/2000/svg"
   xmlns="http://www.w3.org/2000/svg"
   xmlns:sodipodi="http://sodipodi.sourceforge.net/DTD/sodipodi-0.dtd"
   xmlns:inkscape="http://www.inkscape.org/namespaces/inkscape"
   width="11.726175pc"
   height="11.804368pc"
   viewBox="0 0 49.640807 49.971827"
   version="1.1"
   id="svg8"
   sodipodi:docname="C10.svg"
   inkscape:version="0.92.4 (5da689c313, 2019-01-14)">
  <defs
     id="defs2" />
  <sodipodi:namedview
     id="base"
     pagecolor="#ffffff"
     bordercolor="#666666"
     borderopacity="1.0"
     inkscape:pageopacity="0.0"
     inkscape:pageshadow="2"
     inkscape:zoom="2.8284271"
     inkscape:cx="212.70245"
     inkscape:cy="184.71534"
     inkscape:document-units="mm"
     inkscape:current-layer="layer1"
     showgrid="false"
     inkscape:pagecheckerboard="false"
     showborder="true"
     units="pc"
     showguides="false"
     inkscape:showpageshadow="false"
     inkscape:window-width="1920"
     inkscape:window-height="1027"
     inkscape:window-x="-8"
     inkscape:window-y="-8"
     inkscape:window-maximized="1">
    <inkscape:grid
       type="xygrid"
       id="grid10"
       originx="-484.85195"
       originy="-898.47611" />
  </sodipodi:namedview>
  <metadata
     id="metadata5">
    <rdf:RDF>
      <cc:Work
         rdf:about="">
        <dc:format>image/svg+xml</dc:format>
        <dc:type
           rdf:resource="http://purl.org/dc/dcmitype/StillImage" />
        <dc:title></dc:title>
      </cc:Work>
    </rdf:RDF>
  </metadata>
  <g
     inkscape:label="Layer 1"
     inkscape:groupmode="layer"
     id="layer1"
     transform="translate(-30.764003,-134.44013)">
    <path
       inkscape:connector-curvature="0"
       style="fill:#000000;stroke-width:0.26458332"
       d="m 80.169966,141.85932 c 0.259557,-0.21828 -1.50786,-4.44738 -2.273035,-6.15209 -0.158485,-0.35296 -20.461023,-0.93954 -30.31543,-1.26709 -0.300302,-0.0101 -12.298363,6.30687 -12.302332,6.31348 l -4.513791,7.62768 c -0.04154,0.0704 0.871008,23.8207 1.005946,24.14402 1.237191,2.96439 3.80312,9.5086 4.157398,9.63427 0,0 6.706658,2.63552 6.956425,2.20478 0.03122,0.004 22.515778,0.12779 22.882755,-0.0421 3.5814,-1.65709 7.163064,-3.31444 10.744729,-4.97152 0.133085,-0.0616 2.715948,-2.8911 3.813969,-4.04971 0.211402,-0.22305 -0.06244,-22.52954 -0.156634,-33.44175 z m -32.812038,-5.60811 c 8.987102,2.30187 17.97394,4.60401 26.961042,6.90589 l -4.034895,2.35453 c -1.631421,0.21246 -3.263107,0.42492 -4.894527,0.63764 -0.04974,-0.0177 -16.373741,-2.02009 -24.480839,-3.01069 -1.194329,-0.6993 -2.388394,-1.39885 -3.582723,-2.09815 3.344069,-1.59649 6.687873,-3.19299 10.031942,-4.78922 z m 26.943315,8.44815 c -1.083733,2.10158 -2.167466,4.20317 -3.250935,6.30475 0.18071,-1.5748 0.361421,-3.1496 0.542396,-4.72413 0.902758,-0.52705 1.805781,-1.05384 2.708539,-1.58062 z m -4.096279,2.1455 c -0.214048,1.86399 -0.427831,3.72798 -0.641879,5.59197 -1.163108,-1.6846 -2.326481,-3.3692 -3.48959,-5.05381 1.376892,-0.17938 2.754048,-0.35877 4.131469,-0.53816 z M 36.147797,141.8834 c 1.130564,0.66225 2.261129,1.32423 3.391693,1.98649 -2.202656,1.14961 -4.405312,2.29896 -6.607968,3.44858 z m 0.604837,39.16785 c -0.918898,-2.20106 -1.837531,-4.4024 -2.756165,-6.60347 l 6.987911,8.10393 c -1.410758,-0.50007 -2.821252,-1.00039 -4.231746,-1.50046 z m -3.432969,-9.40831 c -0.377295,-7.46866 -0.754856,-14.93706 -1.132152,-22.40572 -7.93e-4,-0.013 -0.0042,-0.0241 -0.0056,-0.0368 2.374371,-1.23931 4.749006,-2.47835 7.123377,-3.71766 0.718873,11.86762 1.43801,23.73524 2.156883,35.60286 -2.71436,-3.14748 -5.428456,-6.29523 -8.142552,-9.44271 z m 31.890495,11.08419 c -7.353035,0.10583 -14.705807,0.21166 -22.058843,0.3175 -0.0889,-0.10293 -0.177535,-0.20585 -0.266435,-0.30877 -0.765704,-12.64074 -1.531673,-25.28147 -2.297377,-37.9222 0.115623,-0.0603 0.231246,-0.12065 0.346869,-0.18098 0.166952,0.0267 0.320939,-0.0222 0.446087,-0.11351 7.654925,0.93557 15.30985,1.87087 22.964512,2.80644 0.05027,0.0749 0.118268,0.13626 0.205581,0.17436 1.61581,2.33998 3.231621,4.68021 4.847166,7.02019 0.01005,0.0145 0.0217,0.0259 0.03254,0.0389 0.363273,6.87282 0.726546,13.74537 1.089819,20.61819 0,0.0159 0.005,0.0291 0.0069,0.0442 -1.772179,2.5019 -3.544623,5.0038 -5.316802,7.5057 z m 1.979083,-0.51356 c 1.535642,-2.16773 3.071284,-4.33546 4.606661,-6.50319 1.132681,0.93318 2.265362,1.86637 3.397779,2.79955 -2.668058,1.23455 -5.336381,2.46909 -8.00444,3.70364 z m 4.591315,-8.22219 c -0.343958,-6.50637 -0.687917,-13.013 -1.031875,-19.51964 1.545431,-2.9972 3.091127,-5.9944 4.636558,-8.9916 0.110861,10.58519 0.221721,21.17011 0.332582,31.75529 -1.312334,-1.08135 -2.624932,-2.1627 -3.937265,-3.24405 z m 3.700992,-31.89764 c -0.01482,-0.005 -0.02725,-0.0116 -0.04313,-0.0156 -8.058944,-2.06428 -16.117888,-4.12856 -24.176833,-6.19284 l 25.354758,0.84296 c -0.378355,1.78859 -0.756709,3.57691 -1.134798,5.36549 z m 2.147623,-3.77058 c 0.410897,0.91572 0.82206,1.83118 1.232958,2.74691 -0.679715,0.3548 -1.359165,0.70934 -2.038879,1.06415 0.268552,-1.27053 0.537104,-2.54079 0.805921,-3.81106 z M 77.03677,176.8502 c -0.115622,-11.05191 -0.23151,-22.10382 -0.347133,-33.15573 0.721254,-0.3765 1.442508,-0.75274 2.163763,-1.12924 0.09234,10.69207 0.184414,21.38415 0.276754,32.07623 -0.697971,0.73633 -1.395677,1.47241 -2.093384,2.20874 z"
       id="path24" />
  </g>
</svg>
