<?xml version="1.0" encoding="UTF-8" standalone="no"?>
<!-- Created with Inkscape (http://www.inkscape.org/) -->

<svg
   xmlns:dc="http://purl.org/dc/elements/1.1/"
   xmlns:cc="http://creativecommons.org/ns#"
   xmlns:rdf="http://www.w3.org/1999/02/22-rdf-syntax-ns#"
   xmlns:svg="http://www.w3.org/2000/svg"
   xmlns="http://www.w3.org/2000/svg"
   xmlns:sodipodi="http://sodipodi.sourceforge.net/DTD/sodipodi-0.dtd"
   xmlns:inkscape="http://www.inkscape.org/namespaces/inkscape"
   width="9.7604694pc"
   height="13.836834pc"
   viewBox="0 0 41.31932 58.575932"
   version="1.1"
   id="svg8"
   sodipodi:docname="C2.svg"
   inkscape:version="0.92.4 (5da689c313, 2019-01-14)">
  <defs
     id="defs2" />
  <sodipodi:namedview
     id="base"
     pagecolor="#ffffff"
     bordercolor="#666666"
     borderopacity="1.0"
     inkscape:pageopacity="0.0"
     inkscape:pageshadow="2"
     inkscape:zoom="0.70710678"
     inkscape:cx="-542.62099"
     inkscape:cy="-288.58695"
     inkscape:document-units="mm"
     inkscape:current-layer="layer1"
     showgrid="false"
     inkscape:pagecheckerboard="false"
     showborder="true"
     units="pc"
     showguides="false"
     inkscape:showpageshadow="false"
     inkscape:window-width="1920"
     inkscape:window-height="1027"
     inkscape:window-x="-8"
     inkscape:window-y="-8"
     inkscape:window-maximized="1">
    <inkscape:grid
       type="xygrid"
       id="grid10"
       originx="-192.85212"
       originy="-417.38753" />
  </sodipodi:namedview>
  <metadata
     id="metadata5">
    <rdf:RDF>
      <cc:Work
         rdf:about="">
        <dc:format>image/svg+xml</dc:format>
        <dc:type
           rdf:resource="http://purl.org/dc/dcmitype/StillImage" />
        <dc:title></dc:title>
      </cc:Work>
    </rdf:RDF>
  </metadata>
  <g
     inkscape:label="Layer 1"
     inkscape:groupmode="layer"
     id="layer1"
     transform="translate(-42.57631,-120.28616)">
    <path
       inkscape:connector-curvature="0"
       style="fill:#000000;stroke-width:0.26458332"
       d="m 82.10697,120.28676 c -0.179387,-0.0852 -20.80313,8.85746 -20.74942,9.30566 0.01111,0.0934 -18.819018,31.55103 -18.781183,31.86906 0.674423,5.64701 2.145506,17.29687 2.277269,17.39636 0.02699,0.0558 17.812279,-0.45376 17.937691,-0.62548 7.0276,-9.61813 14.055197,-19.23626 21.082531,-28.8544 0.235214,-0.3212 -1.507331,-29.03775 -1.766888,-29.0912 z m 0.4064,27.45555 c -2.375164,1.02129 -4.750329,2.04232 -7.125758,3.06361 2.02909,-8.57885 4.058179,-17.15744 6.087269,-25.73602 z m -19.139166,5.52714 c 3.309673,-0.2024 6.619083,-0.40481 9.928756,-0.60721 -3.591983,6.66511 -7.183968,13.33023 -10.775951,19.99535 -3.293269,0.0987 -6.586273,0.19765 -9.879542,0.29633 3.575579,-6.5614 7.151158,-13.12306 10.726737,-19.68447 z m 0.0032,-1.32582 c 0.130969,-3.18029 0.261938,-6.36059 0.392907,-9.54088 1.95871,2.11534 5.946247,6.08648 8.780463,8.97996 -3.057789,0.18706 -6.11558,0.37386 -9.17337,0.56092 z m 16.982787,-27.90772 c -2.122487,8.97387 -4.245239,17.94801 -6.367727,26.92188 -3.215481,-3.35492 -6.430699,-6.70983 -9.64618,-10.06475 5.33797,-5.61896 10.675938,-11.23818 16.013907,-16.85713 z m 0.223044,-2.15583 c -5.570802,5.86396 -11.141604,11.72819 -16.712143,17.59215 -0.37809,-3.1549 -0.756179,-6.30952 -1.134269,-9.46441 5.948892,-2.70934 11.89752,-5.41867 17.846412,-8.12774 z m -18.960572,10.14995 c 0.353218,3.45731 0.749035,7.91818 0.926571,8.78046 -0.02117,0.0624 -0.03731,0.12885 -0.04048,0.20346 -0.16166,3.92351 -0.323056,7.84675 -0.484716,11.77026 -0.0026,0.0624 0.004,0.11827 0.01508,0.17092 -3.465249,6.35899 -6.930497,12.71799 -10.395745,19.07672 -2.001308,-3.97933 -4.380971,-7.74171 -7.123377,-11.25405 5.700977,-9.58241 11.401954,-19.16509 17.102667,-28.74777 z M 45.808517,177.3939 c -0.602456,-5.04481 -1.204913,-10.08936 -1.807369,-15.13417 2.622021,3.45969 4.897173,7.15566 6.811963,11.05588 -0.03942,0.0783 -0.06138,0.16563 -0.06879,0.25479 -1.64518,1.2745 -3.290359,2.549 -4.935802,3.8235 z m 1.265502,0.68606 4.882092,-3.78195 c 3.509433,-0.10531 7.018602,-0.21061 10.528035,-0.31565 l -0.787135,3.28877 c -4.874684,0.26961 -9.748838,0.53922 -14.622992,0.80883 z m 16.562917,-3.23241 c 0.150283,-0.62786 0.430741,-2.2606 0.430741,-2.2606 3.542242,-6.57252 7.08422,-13.1453 10.626462,-19.71781 1.508919,-0.41672 5.251979,-2.15715 7.461779,-3.36709 -6.172994,8.44841 -12.345987,16.89709 -18.518982,25.3455 z"
       id="path22" />
  </g>
</svg>
