<?xml version="1.0" encoding="UTF-8" standalone="no"?>
<!-- Created with Inkscape (http://www.inkscape.org/) -->

<svg
   xmlns:dc="http://purl.org/dc/elements/1.1/"
   xmlns:cc="http://creativecommons.org/ns#"
   xmlns:rdf="http://www.w3.org/1999/02/22-rdf-syntax-ns#"
   xmlns:svg="http://www.w3.org/2000/svg"
   xmlns="http://www.w3.org/2000/svg"
   xmlns:sodipodi="http://sodipodi.sourceforge.net/DTD/sodipodi-0.dtd"
   xmlns:inkscape="http://www.inkscape.org/namespaces/inkscape"
   width="12.706751pc"
   height="30.453058pc"
   viewBox="0 0 53.791911 128.91795"
   version="1.1"
   id="svg8"
   sodipodi:docname="C3.svg"
   inkscape:version="0.92.4 (5da689c313, 2019-01-14)">
  <defs
     id="defs2" />
  <sodipodi:namedview
     id="base"
     pagecolor="#ffffff"
     bordercolor="#666666"
     borderopacity="1.0"
     inkscape:pageopacity="0.0"
     inkscape:pageshadow="2"
     inkscape:zoom="1"
     inkscape:cx="123.65122"
     inkscape:cy="-1.996759"
     inkscape:document-units="mm"
     inkscape:current-layer="layer1"
     showgrid="false"
     inkscape:pagecheckerboard="false"
     showborder="true"
     units="pc"
     showguides="false"
     inkscape:showpageshadow="false"
     inkscape:window-width="1920"
     inkscape:window-height="1027"
     inkscape:window-x="-8"
     inkscape:window-y="-8"
     inkscape:window-maximized="1">
    <inkscape:grid
       type="xygrid"
       id="grid10"
       originx="-256.59647"
       originy="-514.5071" />
  </sodipodi:namedview>
  <metadata
     id="metadata5">
    <rdf:RDF>
      <cc:Work
         rdf:about="">
        <dc:format>image/svg+xml</dc:format>
        <dc:type
           rdf:resource="http://purl.org/dc/dcmitype/StillImage" />
        <dc:title />
      </cc:Work>
    </rdf:RDF>
  </metadata>
  <g
     inkscape:label="Layer 1"
     inkscape:groupmode="layer"
     id="layer1"
     transform="translate(-63.744358,-70.962493)">
    <path
       inkscape:connector-curvature="0"
       style="fill:#000000;stroke-width:0.26458332"
       d="m 63.744358,96.20703 c 0,0 3.671094,41.00725 5.278173,58.01255 0.01773,0.18838 0.09869,0.32808 0.210079,0.42624 0.0053,0.0251 3.991769,12.41875 5.979583,18.59016 0.04577,0.14182 12.564798,17.96997 18.660269,26.63666 0.321733,0.45773 12.411868,-19.35109 17.695868,-27.8257 0.10027,-0.0905 -0.099,-12.25735 0.0839,-18.27054 0.65008,-21.38363 6.12775,-64.55198 5.8756,-64.7401 C 117.47912,88.9747 88.935337,70.91631 88.553808,70.9634 88.208527,70.81815 71.594546,88.15576 63.744358,96.20703 Z M 86.100327,75.17054 c -2.895336,7.55703 -5.790671,15.1138 -8.686007,22.67056 -1.794933,1.59094 -3.589602,3.18188 -5.384535,4.77282 -0.03545,-0.0704 -0.07805,-0.13811 -0.134144,-0.19791 -0.322791,-0.34554 -4.859073,-4.17062 -6.834187,-5.66737 7.013046,-7.19297 14.025827,-14.38566 21.038873,-21.5781 z m 2.037291,-1.63248 c 3.508905,12.29043 7.017544,24.58085 10.526448,36.87154 -4.720696,-1.14855 -9.441391,-2.29737 -14.162087,-3.44593 -1.806046,-3.0824 -3.612092,-6.16479 -5.418138,-9.24719 -0.04207,-0.0717 -0.09181,-0.12514 -0.144462,-0.17039 3.065991,-8.00259 6.131983,-16.00517 9.198239,-24.00803 z m -15.71625,30.48265 c 1.935957,-1.71609 3.871913,-3.43191 5.807869,-5.148 1.776148,3.0316 3.552561,6.06293 5.328708,9.09453 -2.018506,6.15262 -4.037277,12.30524 -6.055783,18.45786 -1.23481,-7.5573 -2.950104,-15.02701 -5.128154,-22.36999 0.01561,-0.0119 0.03228,-0.0209 0.04736,-0.0344 z m 27.394694,5.60917 C 96.347375,97.47995 92.878687,85.33001 89.41,73.18008 l 26.78853,16.53011 c -5.46073,6.63998 -10.92173,13.27997 -16.382468,19.91969 z m -1.031346,2.16932 c 0.580496,4.88235 1.161257,9.76471 1.741754,14.6468 -0.009,0.0225 -0.0198,0.0429 -0.027,0.0672 -1.446479,5.00009 -2.893221,9.99993 -4.339698,14.99976 -0.167481,0.15398 -0.266435,0.38444 -0.195527,0.66251 l 4.193915,16.45259 c 0.006,0.0251 0.018,0.0439 0.0262,0.0667 0.4863,5.96397 0.9726,11.92821 1.45864,17.89219 0.004,0.0497 0.0132,0.0955 0.0254,0.1389 -1.978816,3.05171 -3.957634,6.10341 -5.936718,9.15512 -5.840934,-18.82512 -11.681612,-37.65049 -17.522553,-56.4756 -0.0426,-0.13731 -0.115094,-0.2368 -0.202406,-0.30824 l 6.4643,-19.70299 c 0.4699,0.30348 1.188508,-0.25003 0.94562,-0.84799 4.456113,1.08453 8.911961,2.16879 13.368073,3.25306 z M 86.93932,162.00679 c -1.667933,-0.95514 -3.335866,-1.91002 -5.004064,-2.86517 0.481542,-2.86888 0.963083,-5.73775 1.444625,-8.60663 1.186392,3.82376 2.373048,7.64778 3.559439,11.4718 z m 10.356321,-19.95143 c 0.07012,-0.0746 0.127529,-0.16695 0.161396,-0.2839 1.361811,-4.70747 2.723883,-9.41493 4.085963,-14.1224 1.16231,2.74373 2.32436,5.48746 3.48668,8.23119 0.0246,0.0582 0.0556,0.10768 0.0894,0.15293 -1.37319,6.85032 -2.74638,13.70065 -4.11983,20.55124 -1.234546,-4.8432 -2.469092,-9.68613 -3.703638,-14.52906 z m 12.811659,27.05655 c -0.16405,-0.003 -7.2017,6.6818 -7.2017,6.6818 -0.45826,-5.62267 -0.91678,-11.24533 -1.3753,-16.86799 0.21034,-0.0553 3.45995,-15.51966 4.96649,-23.03489 0.0651,-0.32491 -4.64211,-10.68626 -4.79504,-10.74684 -0.52864,-4.44553 -1.05728,-8.8908 -1.58591,-13.33633 0.14446,-0.16695 0.1987,-0.41539 0.1471,-0.6395 5.27553,-6.41455 10.55132,-12.82938 15.82685,-19.24394 -0.81703,5.23902 -1.55893,10.48968 -2.20954,15.75224 -2.51936,20.37609 -3.76899,40.90458 -3.77295,61.43545 z m -14.431967,25.77545 c 0.271198,-2.62334 0.54266,-5.24669 0.813858,-7.86976 0.07779,-0.0511 0.148432,-0.11986 0.207169,-0.21008 1.984904,-3.06097 3.96981,-6.12193 5.95471,-9.18316 0.15637,-0.003 0.31618,-0.058 0.45562,-0.19235 2.33415,-2.25293 4.66804,-4.50612 7.00219,-6.75905 0.001,0.35454 -7.9e-4,0.70908 0.001,1.06362 z M 81.204741,160.91777 c 0.212196,-0.0275 0.404019,-0.15399 0.486569,-0.39476 1.922198,1.10067 3.844396,2.20133 5.766594,3.302 0.01799,0.0103 0.03519,0.0154 0.05292,0.0238 2.439459,7.8621 4.878917,15.72446 7.318111,23.58655 0.05106,0.16484 0.143933,0.27676 0.256117,0.34766 -0.332846,3.21734 -0.665428,6.43467 -0.998273,9.652 l -0.14658,0.23522 c -5.723466,-8.13753 -11.446668,-16.27532 -17.170135,-24.41284 1.478227,-4.11348 2.956454,-8.2267 4.434681,-12.33964 z M 65.098231,98.63988 c 1.653117,1.41975 5.627423,4.49871 5.636154,4.52702 2.596886,8.51932 5.765535,26.19878 5.765535,26.19878 0,0 4.244446,12.67486 6.01345,18.37663 -0.005,0.0196 -0.01217,0.037 -0.01588,0.0579 l -1.852083,11.03471 c -0.115094,0.10002 -0.199231,0.24263 -0.233892,0.399 -1.462352,4.06929 -2.924968,8.13884 -4.38732,12.20814 l -5.520262,-17.13865 c -0.0381,-0.11853 -0.09895,-0.20796 -0.171715,-0.27675 -1.744397,-18.46236 -3.48906,-36.92473 -5.233987,-55.38682 z"
       id="path14" />
  </g>
</svg>
