<?xml version="1.0" encoding="UTF-8" standalone="no"?>
<!-- Created with Inkscape (http://www.inkscape.org/) -->

<svg
   xmlns:dc="http://purl.org/dc/elements/1.1/"
   xmlns:cc="http://creativecommons.org/ns#"
   xmlns:rdf="http://www.w3.org/1999/02/22-rdf-syntax-ns#"
   xmlns:svg="http://www.w3.org/2000/svg"
   xmlns="http://www.w3.org/2000/svg"
   xmlns:sodipodi="http://sodipodi.sourceforge.net/DTD/sodipodi-0.dtd"
   xmlns:inkscape="http://www.inkscape.org/namespaces/inkscape"
   width="11.821252pc"
   height="16.217264pc"
   viewBox="0 0 50.043298 68.653087"
   version="1.1"
   id="svg8"
   sodipodi:docname="C4.svg"
   inkscape:version="0.92.4 (5da689c313, 2019-01-14)">
  <defs
     id="defs2" />
  <sodipodi:namedview
     id="base"
     pagecolor="#ffffff"
     bordercolor="#666666"
     borderopacity="1.0"
     inkscape:pageopacity="0.0"
     inkscape:pageshadow="2"
     inkscape:zoom="0.35355339"
     inkscape:cx="-1176.7125"
     inkscape:cy="-485.86596"
     inkscape:document-units="mm"
     inkscape:current-layer="layer1"
     showgrid="false"
     inkscape:pagecheckerboard="false"
     showborder="true"
     units="pc"
     showguides="false"
     inkscape:showpageshadow="false"
     inkscape:window-width="1920"
     inkscape:window-height="1027"
     inkscape:window-x="-8"
     inkscape:window-y="-8"
     inkscape:window-maximized="1">
    <inkscape:grid
       type="xygrid"
       id="grid10"
       originx="-330.90457"
       originy="-645.4755" />
  </sodipodi:namedview>
  <metadata
     id="metadata5">
    <rdf:RDF>
      <cc:Work
         rdf:about="">
        <dc:format>image/svg+xml</dc:format>
        <dc:type
           rdf:resource="http://purl.org/dc/dcmitype/StillImage" />
        <dc:title />
      </cc:Work>
    </rdf:RDF>
  </metadata>
  <g
     inkscape:label="Layer 1"
     inkscape:groupmode="layer"
     id="layer1"
     transform="translate(-74.308111,-97.378522)">
    <path
       inkscape:connector-curvature="0"
       style="fill:#000000;stroke-width:0.26458332"
       d="m 124.32574,128.65049 c 0.0122,-0.0294 0.0177,-0.0571 0.0254,-0.0852 0.0466,-0.1143 -5.9145,-20.29461 -6.21745,-20.44383 -2.84241,-3.57584 -5.68483,-7.15168 -8.52725,-10.72753 -0.49795,-0.62653 -27.140166,18.05967 -27.269018,18.49094 -3.417094,11.44085 -8.027988,34.89219 -8.029311,34.90251 0,0 5.395648,5.47079 7.653338,8.04598 l 16.11577,7.19825 c 4.786841,-2.45586 9.238461,-4.42409 14.025301,-6.87996 0.46381,-0.23786 12.22322,-30.50116 12.22322,-30.50116 z m -21.25081,14.78888 c -0.13149,-0.0955 -0.30665,-0.13282 -0.51726,-0.0638 -3.804705,1.24645 -7.609413,2.49317 -11.414386,3.73989 1.066535,-6.70957 2.133071,-13.41914 3.199342,-20.12844 0.02408,-0.006 0.04604,-0.007 0.07117,-0.0161 3.266545,-1.21391 6.533094,-2.42782 9.799904,-3.64147 5.96318,1.68037 11.92662,3.36074 17.8898,5.04138 -6.34259,5.02232 -12.68571,10.04544 -19.02857,15.06855 z M 94.237586,125.6345 c -0.0852,-0.0783 -0.187325,-0.136 -0.294217,-0.17066 -2.702454,-2.64768 -5.404908,-5.2951 -8.107362,-7.94279 5.554398,1.68116 11.108796,3.36233 16.663193,5.04322 -2.754047,1.02368 -5.507831,2.04709 -8.261614,3.07023 z m 28.435834,1.52188 c -5.7023,-1.60681 -11.4046,-3.21363 -17.10717,-4.82071 3.9624,-4.07087 7.9248,-8.14149 11.8872,-12.21237 1.74017,5.6777 3.48007,11.35539 5.21997,17.03308 z M 109.39504,99.24337 c 2.51777,3.16733 5.03555,6.33492 7.55332,9.50225 l -12.63914,12.98495 c -6.461394,-1.95553 -12.923049,-3.91133 -19.384703,-5.86687 8.157104,-5.54037 16.313683,-11.08022 24.470523,-16.62033 z m -33.652887,50.94817 c 1.874838,-11.21463 4.429654,-22.30438 7.654131,-33.20812 3.232414,3.1668 6.464829,6.33333 9.696979,9.50013 -1.096962,6.90165 -2.193925,13.80358 -3.291152,20.70523 -0.07964,-0.008 -0.165894,-0.001 -0.260085,0.0278 -2.461948,0.76174 -4.924161,1.52347 -7.386108,2.28547 -2.137834,0.22966 -4.275667,0.45958 -6.413765,0.68951 z m 0.84799,1.22872 c 1.546225,-0.16616 3.092185,-0.33258 4.63841,-0.49874 0.194469,1.77033 0.388938,3.54039 0.583406,5.31072 -1.627452,-1.72561 -3.370262,-3.32793 -5.221816,-4.81198 z m 6.69581,6.21057 c -0.250825,-2.28468 -0.501914,-4.56909 -0.752739,-6.85377 0.07964,-0.013 0.144991,-0.0394 0.20267,-0.0722 2.175139,-0.6731 4.350014,-1.34593 6.525154,-2.01903 0.05556,0.0849 0.130969,0.15213 0.220927,0.19685 2.177786,4.98131 4.355836,9.96262 6.533621,14.94393 -4.243123,-2.06534 -8.48651,-4.13041 -12.729633,-6.19575 z m 7.516548,-9.01568 c 3.631406,-1.18983 7.262812,-2.37966 10.894479,-3.56949 -1.44647,6.18728 -2.89295,12.37429 -4.339692,18.56158 -2.184929,-4.99745 -4.369858,-9.9949 -6.554787,-14.99209 z m 12.258409,-3.60071 c 0.11007,-0.0172 0.22066,-0.0601 0.32491,-0.14261 6.35079,-5.0292 12.70132,-10.05814 19.05185,-15.08734 -3.85895,9.38556 -7.71789,18.77113 -11.57658,28.15669 -0.0582,0.14156 -0.0632,0.26856 -0.0331,0.37836 -4.12009,2.11375 -8.24045,4.22778 -12.360537,6.3418 1.531408,-6.54924 3.062547,-13.0982 4.593427,-19.6469 z"
       id="path12" />
  </g>
</svg>
