<?xml version="1.0" encoding="UTF-8" standalone="no"?>
<!-- Created with Inkscape (http://www.inkscape.org/) -->

<svg
   xmlns:dc="http://purl.org/dc/elements/1.1/"
   xmlns:cc="http://creativecommons.org/ns#"
   xmlns:rdf="http://www.w3.org/1999/02/22-rdf-syntax-ns#"
   xmlns:svg="http://www.w3.org/2000/svg"
   xmlns="http://www.w3.org/2000/svg"
   xmlns:sodipodi="http://sodipodi.sourceforge.net/DTD/sodipodi-0.dtd"
   xmlns:inkscape="http://www.inkscape.org/namespaces/inkscape"
   width="13.504242pc"
   height="24.173843pc"
   viewBox="0 0 57.167956 102.33594"
   version="1.1"
   id="svg8"
   sodipodi:docname="C5.svg"
   inkscape:version="0.92.4 (5da689c313, 2019-01-14)">
  <defs
     id="defs2" />
  <sodipodi:namedview
     id="base"
     pagecolor="#ffffff"
     bordercolor="#666666"
     borderopacity="1.0"
     inkscape:pageopacity="0.0"
     inkscape:pageshadow="2"
     inkscape:zoom="0.35355339"
     inkscape:cx="-1385.4624"
     inkscape:cy="250.58289"
     inkscape:document-units="mm"
     inkscape:current-layer="layer1"
     showgrid="false"
     inkscape:pagecheckerboard="false"
     showborder="true"
     units="pc"
     showguides="false"
     inkscape:showpageshadow="false"
     inkscape:window-width="1920"
     inkscape:window-height="1027"
     inkscape:window-x="-8"
     inkscape:window-y="-8"
     inkscape:window-maximized="1">
    <inkscape:grid
       type="xygrid"
       id="grid10"
       originx="-386.1363"
       originy="-690.09693" />
  </sodipodi:namedview>
  <metadata
     id="metadata5">
    <rdf:RDF>
      <cc:Work
         rdf:about="">
        <dc:format>image/svg+xml</dc:format>
        <dc:type
           rdf:resource="http://purl.org/dc/dcmitype/StillImage" />
        <dc:title />
      </cc:Work>
    </rdf:RDF>
  </metadata>
  <g
     inkscape:label="Layer 1"
     inkscape:groupmode="layer"
     id="layer1"
     transform="translate(-55.231743,-150.04265)">
    <path
       inkscape:connector-curvature="0"
       style="fill:#000000;stroke-width:0.26458332"
       d="m 112.39969,178.27538 c 0.009,-0.22384 -5.24616,-13.67975 -5.4737,-13.8475 -6.50319,-4.79293 -13.006124,-9.58612 -19.509318,-14.37904 -0.352689,-0.25982 -18.931203,7.71921 -27.639962,11.48556 -0.142346,0.0616 -0.242094,0.15346 -0.307182,0.26008 -0.09657,0.0847 -0.172243,0.20135 -0.209814,0.35322 -0.909373,3.6703 -1.818746,7.3406 -2.728119,11.0109 -0.02064,0.0243 -0.03784,0.0447 -0.05821,0.0691 -0.37756,0.18548 -1.441715,33.63622 -1.208617,33.92011 -0.0042,0.23284 7.685617,16.19118 11.146102,23.68418 3.197225,6.92256 7.255668,14.59759 11.446933,21.10898 0.346869,0.5387 1.11416,0.5895 1.527175,0.0998 4.024578,-4.77202 30.711252,-36.79639 30.721302,-36.79957 0,-5.3e-4 1.81689,-25.10208 2.29341,-36.96573 z m -2.21774,-2.66118 c 0,0 0.1524,1.18031 0.0537,1.83674 -1.54675,-1.13268 -3.09351,-2.26536 -4.64026,-3.39831 0.32994,-2.37569 0.66014,-4.75139 0.99007,-7.12708 1.31551,2.85221 2.28097,5.83671 3.59648,8.68865 z m -4.66857,-10.58624 c -0.40084,2.88501 -0.80169,5.77003 -1.20253,8.65478 -0.10187,0.0717 -0.18521,0.16722 -0.24024,0.27517 -0.031,0.0138 -0.0619,0.0249 -0.0929,0.0445 -4.20291,2.65668 -8.405817,5.31336 -12.608723,7.97004 -1.033197,-7.2173 -2.180165,-23.2746 -3.203574,-29.7307 5.782734,4.26218 11.565202,8.52408 17.347937,12.78626 z m -35.518992,54.05675 c -0.07937,-11.96763 0.397669,-23.93156 1.429544,-35.85527 l 19.030686,0.4736 c -0.175154,8.41693 0.175684,16.82935 1.071034,25.20077 -1.026848,3.78698 -2.053432,7.57396 -3.08028,11.36094 -0.01984,-0.003 -0.03757,-0.008 -0.059,-0.009 -7.461253,-0.4352 -11.119117,-0.74185 -18.391984,-1.17074 z m 16.844434,-66.77289 c 1.040077,6.56008 2.206361,22.96715 3.253317,30.06963 -6.032235,-0.15002 -12.064472,-0.30031 -18.096707,-0.45032 4.947708,-9.87319 9.895417,-19.74639 14.84339,-29.61931 z m -26.349854,10.3542 c 8.376179,-3.62267 16.752358,-7.24535 25.128802,-10.86802 l -14.943667,29.8188 c -4.282281,-2.73606 -8.564562,-5.47211 -12.846843,-8.2079 0.887412,-3.58114 1.77456,-7.16201 2.661708,-10.74288 z m -4.05765,43.75229 c 0.345546,-10.56031 0.691092,-21.12063 1.036373,-31.68094 4.221427,2.69716 8.443118,5.39432 12.664545,8.09175 -1.028171,11.80862 -1.508919,23.65878 -1.456531,35.51158 -3.804973,-3.6105 -12.244387,-11.92239 -12.244387,-11.92239 z m 11.013016,23.50321 c -2.944547,-6.39207 -5.836972,-12.80875 -8.738922,-19.22066 3.298825,3.12976 6.597649,6.25951 9.896474,9.38927 -0.0056,0.0791 5.29e-4,0.16245 0.02672,0.25082 l 8.287544,27.87386 c -3.575841,-5.86767 -6.596853,-12.05177 -9.471816,-18.29329 z m 11.038152,18.9312 -8.457935,-28.44694 c 7.268368,0.42677 10.774362,0.72628 18.159678,1.15702 0.01508,7.9e-4 0.02804,-0.003 0.0426,-0.003 l -0.04286,7.72213 c -3.234002,6.52356 -6.46774,13.04713 -9.701478,19.57043 z m 11.061172,-27.66536 c 0.01455,-0.0333 0.03175,-0.0643 0.04207,-0.10213 0.953822,-3.5179 1.907645,-7.03607 2.861468,-10.55397 1.050925,2.63657 2.101586,5.27315 3.152246,7.90998 -2.030148,2.96466 -4.060031,5.92958 -6.090179,8.89424 0.01164,-2.04973 0.02302,-4.09893 0.0344,-6.14812 z m -9.606757,27.70822 c 3.109913,-6.27354 6.219826,-12.54734 9.329738,-18.82087 0.103717,-0.0923 0.184415,-0.21325 0.215635,-0.36698 2.367757,-3.45784 4.735248,-6.91568 7.103005,-10.37352 0.05503,-0.003 0.111654,-0.0114 0.17092,-0.0294 3.697021,-1.12553 7.394051,-2.25107 11.091331,-3.37634 -9.130239,11.13472 -18.434841,22.12498 -27.910629,32.96708 z m 16.874332,-30.98747 c -1.267884,-3.18135 -2.535767,-6.36297 -3.80365,-9.54432 -0.0553,-0.13864 -0.139171,-0.23706 -0.237596,-0.30268 -0.851694,-8.23092 -1.194594,-16.50762 -0.997215,-24.78114 4.324086,-2.73341 8.648438,-5.46682 12.972518,-8.20023 0.003,-0.002 0.005,-0.004 0.008,-0.007 1.6891,1.23693 3.37794,2.47359 5.06704,3.71052 0.18283,0.13388 0.37597,0.15478 0.54954,0.11086 -0.47281,11.77263 -0.94562,23.545 -1.41843,35.31764 -4.04654,1.23216 -8.09334,2.46406 -12.140145,3.69596 z"
       id="path8" />
  </g>
</svg>
