<?xml version="1.0" encoding="UTF-8" standalone="no"?>
<!-- Created with Inkscape (http://www.inkscape.org/) -->

<svg
   xmlns:dc="http://purl.org/dc/elements/1.1/"
   xmlns:cc="http://creativecommons.org/ns#"
   xmlns:rdf="http://www.w3.org/1999/02/22-rdf-syntax-ns#"
   xmlns:svg="http://www.w3.org/2000/svg"
   xmlns="http://www.w3.org/2000/svg"
   xmlns:sodipodi="http://sodipodi.sourceforge.net/DTD/sodipodi-0.dtd"
   xmlns:inkscape="http://www.inkscape.org/namespaces/inkscape"
   width="9.2994213pc"
   height="11.819627pc"
   viewBox="0 0 39.367549 50.036422"
   version="1.1"
   id="svg8"
   sodipodi:docname="C7.svg"
   inkscape:version="0.92.4 (5da689c313, 2019-01-14)">
  <defs
     id="defs2" />
  <sodipodi:namedview
     id="base"
     pagecolor="#ffffff"
     bordercolor="#666666"
     borderopacity="1.0"
     inkscape:pageopacity="0.0"
     inkscape:pageshadow="2"
     inkscape:zoom="0.35355339"
     inkscape:cx="-1641.4074"
     inkscape:cy="-783.08834"
     inkscape:document-units="mm"
     inkscape:current-layer="layer1"
     showgrid="false"
     inkscape:pagecheckerboard="false"
     showborder="true"
     units="pc"
     showguides="false"
     inkscape:showpageshadow="false"
     inkscape:window-width="1920"
     inkscape:window-height="1027"
     inkscape:window-x="-8"
     inkscape:window-y="-8"
     inkscape:window-maximized="1">
    <inkscape:grid
       type="xygrid"
       id="grid10"
       originx="-532.4323"
       originy="-933.65496" />
  </sodipodi:namedview>
  <metadata
     id="metadata5">
    <rdf:RDF>
      <cc:Work
         rdf:about="">
        <dc:format>image/svg+xml</dc:format>
        <dc:type
           rdf:resource="http://purl.org/dc/dcmitype/StillImage" />
        <dc:title></dc:title>
      </cc:Work>
    </rdf:RDF>
  </metadata>
  <g
     inkscape:label="Layer 1"
     inkscape:groupmode="layer"
     id="layer1"
     transform="translate(-78.344305,-99.19656)">
    <path
       inkscape:connector-curvature="0"
       style="fill:#ffffff;stroke-width:0.26458332"
       d="m 82.10697,120.28676 c -0.179387,-0.0852 -20.80313,8.85746 -20.74942,9.30566 0.01111,0.0934 -18.819018,31.55103 -18.781183,31.86906 0.674423,5.64701 2.145506,17.29687 2.277269,17.39636 0.02699,0.0558 17.812279,-0.45376 17.937691,-0.62548 7.0276,-9.61813 14.055197,-19.23626 21.082531,-28.8544 0.235214,-0.3212 -1.507331,-29.03775 -1.766888,-29.0912 z m 0.4064,27.45555 c -2.375164,1.02129 -4.750329,2.04232 -7.125758,3.06361 2.02909,-8.57885 4.058179,-17.15744 6.087269,-25.73602 z m -19.139166,5.52714 c 3.309673,-0.2024 6.619083,-0.40481 9.928756,-0.60721 -3.591983,6.66511 -7.183968,13.33023 -10.775951,19.99535 -3.293269,0.0987 -6.586273,0.19765 -9.879542,0.29633 3.575579,-6.5614 7.151158,-13.12306 10.726737,-19.68447 z m 0.0032,-1.32582 c 0.130969,-3.18029 0.261938,-6.36059 0.392907,-9.54088 1.95871,2.11534 5.946247,6.08648 8.780463,8.97996 -3.057789,0.18706 -6.11558,0.37386 -9.17337,0.56092 z m 16.982787,-27.90772 c -2.122487,8.97387 -4.245239,17.94801 -6.367727,26.92188 -3.215481,-3.35492 -6.430699,-6.70983 -9.64618,-10.06475 5.33797,-5.61896 10.675938,-11.23818 16.013907,-16.85713 z m 0.223044,-2.15583 c -5.570802,5.86396 -11.141604,11.72819 -16.712143,17.59215 -0.37809,-3.1549 -0.756179,-6.30952 -1.134269,-9.46441 5.948892,-2.70934 11.89752,-5.41867 17.846412,-8.12774 z m -18.960572,10.14995 c 0.353218,3.45731 0.749035,7.91818 0.926571,8.78046 -0.02117,0.0624 -0.03731,0.12885 -0.04048,0.20346 -0.16166,3.92351 -0.323056,7.84675 -0.484716,11.77026 -0.0026,0.0624 0.004,0.11827 0.01508,0.17092 -3.465249,6.35899 -6.930497,12.71799 -10.395745,19.07672 -2.001308,-3.97933 -4.380971,-7.74171 -7.123377,-11.25405 5.700977,-9.58241 11.401954,-19.16509 17.102667,-28.74777 z M 45.808517,177.3939 c -0.602456,-5.04481 -1.204913,-10.08936 -1.807369,-15.13417 2.622021,3.45969 4.897173,7.15566 6.811963,11.05588 -0.03942,0.0783 -0.06138,0.16563 -0.06879,0.25479 -1.64518,1.2745 -3.290359,2.549 -4.935802,3.8235 z m 1.265502,0.68606 4.882092,-3.78195 c 3.509433,-0.10531 7.018602,-0.21061 10.528035,-0.31565 l -0.787135,3.28877 c -4.874684,0.26961 -9.748838,0.53922 -14.622992,0.80883 z m 16.562917,-3.23241 c 0.150283,-0.62786 0.430741,-2.2606 0.430741,-2.2606 3.542242,-6.57252 7.08422,-13.1453 10.626462,-19.71781 1.508919,-0.41672 5.251979,-2.15715 7.461779,-3.36709 -6.172994,8.44841 -12.345987,16.89709 -18.518982,25.3455 z"
       id="path22" />
    <path
       inkscape:connector-curvature="0"
       style="fill:#000000;stroke-width:0.26458332"
       d="m 117.71032,117.24167 c -2.29024,-5.78643 -7.7089,-18.04511 -7.7089,-18.04511 0,0 -24.6851,6.28148 -24.92587,6.49155 -2.07354,1.8087 -6.82149,5.49302 -6.72994,5.67611 0.63844,2.39369 8.98948,30.97133 9.16093,31.14067 l 6.21374,6.13304 c 0.006,0.006 0.0122,0.009 0.018,0.0145 0.12674,0.35877 6.49817,0.431 9.10405,0.58049 0.41619,0.0238 6.37223,-6.98182 9.24084,-10.17084 0.118,-0.0577 0.21563,-0.15955 0.27569,-0.30666 0.0236,-0.0262 0.0474,-0.0527 0.0709,-0.0788 0.19527,-0.21749 5.38427,-21.17301 5.28056,-21.43495 z M 86.21379,106.8581 c 7.61815,-2.05422 15.2363,-4.10871 22.85444,-6.16294 -0.45931,2.43523 -0.91837,4.87019 -1.37768,7.30541 -0.10584,0.0619 -0.19103,0.14658 -0.2503,0.24633 -0.0585,0.0408 -0.11456,0.0889 -0.16351,0.15266 -2.43496,3.17342 -4.86966,6.34683 -7.30462,9.52024 -0.0389,-0.004 -0.0786,-0.007 -0.12197,-0.005 -5.90815,0.34925 -11.81629,0.6985 -17.72444,1.04775 1.36261,-4.03486 2.72521,-8.06975 4.08808,-12.10465 z m 22.64489,16.86851 c -1.8788,3.0054 -3.75761,6.01107 -5.63615,9.01647 -0.77126,-4.63021 -1.54279,-9.26068 -2.31405,-13.89089 0.005,-0.006 0.01,-0.01 0.0145,-0.0156 2.28389,-2.97656 4.5675,-5.95312 6.85139,-8.92968 0.0524,0.0333 0.10874,0.059 0.16695,0.0788 0.35878,4.39869 0.71755,8.79739 1.07606,13.19582 -0.17595,0.16775 -0.21325,0.36539 -0.15875,0.54505 z M 84.4342,107.99846 c -1.02314,3.02974 -2.04655,6.05948 -3.06969,9.08896 -0.4625,-1.73381 -0.92472,-3.46789 -1.38721,-5.20171 1.48563,-1.29566 2.97127,-2.59159 4.4569,-3.88725 z m 4.16825,33.72961 c -0.002,-0.0566 -0.01,-0.11536 -0.0288,-0.17807 -2.15556,-7.08765 -4.31112,-14.17558 -6.46668,-21.26324 5.84438,-0.34554 11.68902,-0.69109 17.53341,-1.03663 0.84164,5.05195 1.68327,10.10417 2.52491,15.15612 -0.008,0.0122 -0.018,0.0214 -0.0259,0.0344 -2.62651,4.29049 -5.25277,8.58071 -7.87929,12.87119 -1.88595,-1.86108 -3.77163,-3.72242 -5.65758,-5.58377 z m 13.86046,6.05314 c -0.0299,0.0333 -0.0534,0.0677 -0.0754,0.10265 -1.82086,-0.10451 -3.64172,-0.20875 -5.46259,-0.31326 4.48681,-2.86544 8.97335,-5.73088 13.46015,-8.59631 z m 9.04822,-11.08631 c -0.0217,0.0111 -0.0431,0.019 -0.0651,0.0331 -5.01094,3.2004 -10.02215,6.4008 -15.03309,9.60094 2.2897,-3.74015 4.57914,-7.4803 6.86884,-11.22045 0.0116,-0.0193 0.0206,-0.0384 0.0296,-0.0574 0.0413,-0.0394 0.0804,-0.0836 0.11483,-0.13838 2.19049,-3.50414 4.38097,-7.00855 6.57146,-10.51269 0.23706,-0.0733 0.41989,-0.27226 0.3929,-0.6014 -10e-4,-0.014 -0.002,-0.0283 -0.003,-0.0423 1.78144,-1.45177 3.56288,-2.9038 5.34406,-4.35583 -1.40679,5.76474 -2.81332,11.52948 -4.22011,17.29449 z m 4.77917,-19.44793 c -2.0111,1.63909 -4.0222,3.27818 -6.03303,4.91728 -0.37147,-4.55401 -0.74269,-9.10802 -1.11416,-13.66229 -0.0103,-0.12674 -0.0579,-0.263 -0.13361,-0.37994 l 1.18639,-6.29179 c 2.03279,5.13662 4.06585,10.27297 6.09864,15.40959 -10e-4,0.002 -0.003,0.005 -0.004,0.007 z"
       id="path20" />
  </g>
</svg>
