<?xml version="1.0" encoding="UTF-8" standalone="no"?>
<!-- Created with Inkscape (http://www.inkscape.org/) -->

<svg
   xmlns:dc="http://purl.org/dc/elements/1.1/"
   xmlns:cc="http://creativecommons.org/ns#"
   xmlns:rdf="http://www.w3.org/1999/02/22-rdf-syntax-ns#"
   xmlns:svg="http://www.w3.org/2000/svg"
   xmlns="http://www.w3.org/2000/svg"
   xmlns:sodipodi="http://sodipodi.sourceforge.net/DTD/sodipodi-0.dtd"
   xmlns:inkscape="http://www.inkscape.org/namespaces/inkscape"
   width="17.832096pc"
   height="19.777744pc"
   viewBox="0 0 75.489204 83.725788"
   version="1.1"
   id="svg8"
   sodipodi:docname="C9.svg"
   inkscape:version="0.92.4 (5da689c313, 2019-01-14)">
  <defs
     id="defs2" />
  <sodipodi:namedview
     id="base"
     pagecolor="#ffffff"
     bordercolor="#666666"
     borderopacity="1.0"
     inkscape:pageopacity="0.0"
     inkscape:pageshadow="2"
     inkscape:zoom="2.8284271"
     inkscape:cx="258.19309"
     inkscape:cy="181.85072"
     inkscape:document-units="mm"
     inkscape:current-layer="layer1"
     showgrid="false"
     inkscape:pagecheckerboard="false"
     showborder="true"
     units="pc"
     showguides="false"
     inkscape:showpageshadow="false"
     inkscape:window-width="1920"
     inkscape:window-height="1027"
     inkscape:window-x="-8"
     inkscape:window-y="-8"
     inkscape:window-maximized="1">
    <inkscape:grid
       type="xygrid"
       id="grid10"
       originx="-472.8159"
       originy="-899.234" />
  </sodipodi:namedview>
  <metadata
     id="metadata5">
    <rdf:RDF>
      <cc:Work
         rdf:about="">
        <dc:format>image/svg+xml</dc:format>
        <dc:type
           rdf:resource="http://purl.org/dc/dcmitype/StillImage" />
        <dc:title></dc:title>
      </cc:Work>
    </rdf:RDF>
  </metadata>
  <g
     inkscape:label="Layer 1"
     inkscape:groupmode="layer"
     id="layer1"
     transform="translate(-18.727939,-99.928235)">
    <path
       inkscape:connector-curvature="0"
       style="fill:#000000;stroke-width:0.26458332"
       d="m 94.210406,118.94018 c -7.29562,-6.27459 -21.92417,-18.85103 -21.94269,-18.86426 -0.12832,-0.110862 -0.30348,-0.172245 -0.51938,-0.138379 -13.43739,2.106349 -40.764617,6.180399 -40.860396,6.539179 l -12.156017,38.46936 c -0.07858,0.29395 1.028965,18.1946 1.226873,18.53961 3.6322,6.33122 11.292152,20.3036 11.7983,20.16734 7.826375,-2.10608 23.90114,-6.25343 24.10963,-6.43123 2.88687,-2.46115 19.63314,-16.89179 24.85284,-21.45638 0.14155,-0.0466 13.84485,-36.5207 13.49084,-36.82524 z m -20.59014,13.65488 c 5.80178,-3.57769 11.60357,-7.15565 17.40561,-10.73335 -7.66074,10.33224 -15.32175,20.66475 -22.9825,30.99699 -2.75352,1.29884 -5.50704,2.59742 -8.26055,3.89599 4.47225,-7.89172 8.9445,-15.78345 13.41675,-23.67518 0.22014,-0.0481 0.39741,-0.20664 0.42069,-0.48445 z m 19.01772,-13.2715 c -6.35212,3.91716 -12.70423,7.83431 -19.05661,11.75147 -0.29845,-9.63692 -0.59664,-19.27384 -0.89509,-28.91076 6.65083,5.71977 13.3014,11.43953 19.9517,17.15929 z m -21.26139,-16.96191 c 0.30586,9.88087 0.61198,19.762 0.91784,29.64286 -4.82124,8.50768 -9.64274,17.01562 -14.46397,25.5233 l -21.564341,-9.32762 c 1.550194,-2.26934 3.100388,-4.53867 4.650321,-6.808 0.10477,-0.15346 0.13176,-0.30877 0.1098,-0.45164 -0.007,-0.0611 -0.0188,-0.12356 -0.0444,-0.18838 l -3.856039,-9.7327 c 0.179123,-4.377 0.35851,-8.75374 0.537633,-13.13074 0.05741,-0.0315 0.11139,-0.0677 0.156633,-0.11219 11.185523,-5.13847 22.371053,-10.27668 33.556573,-15.41489 z m -36.313002,45.25328 c -0.791633,-1.97591 -1.583266,-3.95155 -2.3749,-5.92746 0.0082,-0.0169 0.01826,-0.031 0.0254,-0.0492 l 3.614738,-9.04398 c 1.100666,2.77812 2.201333,5.55598 3.302004,8.33411 -1.522152,2.22911 -3.044565,4.4577 -4.567242,6.68655 z m 34.895372,-46.05814 c -10.79659,4.95962 -21.59318,9.91923 -32.389768,14.87885 -0.02461,-0.031 -0.05265,-0.0582 -0.08202,-0.0836 -1.694657,-2.96942 -3.389313,-5.93884 -5.083705,-8.90852 12.518233,-1.96215 25.036723,-3.9243 37.555493,-5.88672 z M 36.1296,116.63407 c -4.954587,8.08488 -9.909439,16.17001 -14.864027,24.25488 3.123936,-10.38225 7.68985,-22.42899 10.311871,-32.23154 1.51765,2.65907 3.034771,5.31786 4.552156,7.97666 z m -15.898812,28.47128 c 5.356225,-8.73998 10.71245,-17.48022 16.06841,-26.2202 -0.157162,3.84069 -0.314589,7.68112 -0.471752,11.52181 -0.05292,0.0579 -0.09895,0.12806 -0.13335,0.21404 -1.409435,3.52637 -2.818871,7.053 -4.228571,10.57937 -0.06694,0.16748 -0.06085,0.31776 -0.01085,0.44529 -0.06456,0.14711 -0.07726,0.32147 -0.0019,0.50959 l 2.677584,6.68338 c -4.237567,4.2246 -8.474869,8.4492 -12.712436,12.6738 -0.395552,-5.46894 -0.791368,-10.93787 -1.187185,-16.40708 z m 1.324769,18.51475 c 0.0064,-0.0484 0.0082,-0.0992 0.0045,-0.15266 -0.0053,-0.073 -0.01058,-0.14605 -0.01588,-0.21908 4.175918,-4.16348 8.352102,-8.3267 12.52802,-12.49018 -0.95885,9.88854 -1.9177,19.77681 -2.87655,29.66535 -3.213629,-5.60123 -6.426993,-11.20246 -9.640093,-16.80343 z m 10.803996,18.50549 3.18082,-32.80172 c 7.291123,3.15383 14.582243,6.30767 21.873633,9.4615 0.01,0.0238 0.0193,0.0474 0.0315,0.0699 -0.0254,0.0611 -0.0455,0.12727 -0.0521,0.20452 -0.48842,5.73114 -1.35625,11.41863 -2.61223,17.03176 -7.47421,2.01163 -14.9479,4.02299 -22.421583,6.03409 z m 23.986593,-7.05115 c 1.11416,-5.25171 1.91003,-10.56005 2.36617,-15.91204 0.0127,-0.15028 -0.0196,-0.27596 -0.0794,-0.37835 0.007,-0.0119 0.0135,-0.0238 0.0201,-0.0357 0.006,-0.002 0.0124,-0.004 0.019,-0.007 3.00117,-1.41552 6.00208,-2.83078 9.00325,-4.2463 -1.19936,4.59423 -2.39845,9.18845 -3.59781,13.78268 -0.0204,0.0783 -0.0238,0.15187 -0.0198,0.22251 -2.57069,2.19155 -5.14112,4.38283 -7.71155,6.5741 z m 9.3726,-7.86288 c 1.18322,-4.53258 2.36644,-9.06542 3.54965,-13.598 0.0198,-0.0757 0.0243,-0.14684 0.0209,-0.21511 7.43347,-10.02585 14.86721,-20.05171 22.30068,-30.07756 -3.92669,10.52274 -7.85363,21.04575 -11.78031,31.56849 -4.69715,4.10739 -9.39403,8.21479 -14.09092,12.32218 z"
       id="path10" />
  </g>
</svg>
